<svg width="14" height="12" viewBox="0 0 14 12" fill="none" xmlns="http://www.w3.org/2000/svg">
<g clip-path="url(#clip0_124_682)">
<path d="M1.60243 9.63753L2.10459 10.5038L6.5801 8.25661L11.0556 10.5038L11.564 9.63753L7.08852 7.39036V2.09259H6.07792V7.39036L1.60243 9.63753ZM0.0708416 10.5226C-0.104914 10.9243 0.0520106 11.1816 0.478846 11.2319L3.07752 11.5143C3.655 11.5834 3.99396 11.2256 3.68638 10.6983L2.13597 8.01179C1.84095 7.49706 1.35763 7.60376 1.13165 8.13108L0.0708416 10.5226ZM13.0893 10.5226L12.0348 8.13108C11.8025 7.60376 11.3255 7.49706 11.0305 8.01179L9.47375 10.6983C9.16619 11.2256 9.51142 11.5834 10.0826 11.5143L12.6813 11.2319C13.1081 11.1816 13.2651 10.9243 13.0893 10.5226ZM6.1658 0.265992L4.62793 2.36878C4.2827 2.83328 4.42707 3.31033 5.02966 3.31033H8.12421C8.73933 3.31033 8.87116 2.83955 8.52593 2.36878L6.98182 0.265992C6.71816 -0.0855189 6.42943 -0.0917955 6.1658 0.265992Z" fill="#1E1E1E" fill-opacity="0.35"/>
</g>
<defs>
<clipPath id="clip0_124_682">
<rect width="13.1601" height="12" fill="white"/>
</clipPath>
</defs>
</svg>
